<svg width="319" height="209" viewBox="0 0 319 209" fill="none" xmlns="http://www.w3.org/2000/svg">
<g clip-path="url(#clip0_13_4845)">
<path d="M207.365 91.2583C207 93.1821 206.562 95.0862 206.052 96.9708C205.997 97.1896 205.935 97.4052 205.873 97.624H198.777C198.172 97.6247 197.593 97.8658 197.165 98.2944C196.738 98.723 196.498 99.3042 196.497 99.9103V120.2C196.282 120.601 196.064 121 195.846 121.398C194.719 123.456 193.546 125.491 192.348 127.5C172.805 160.147 145.549 187.467 112.985 207.047L114.913 202.683C114.206 202.634 113.496 202.585 112.789 202.536C97.4012 201.481 81.961 200.312 66.9344 196.843C51.2142 193.215 35.836 186.921 23.5158 176.485C11.1922 166.047 2.15808 151.14 0.90421 135.012C0.486111 129.469 1.04508 123.895 2.55547 118.547C5.44407 108.252 11.7557 98.9893 20.8616 93.5087C35.1651 84.9024 53.8229 86.6563 68.9015 93.8157C83.9769 100.972 96.2484 112.818 108.23 124.459C96.1328 103.654 79.2897 86.0226 59.0825 73.0103C52.3866 68.712 45.2805 64.8841 39.5878 59.3153C33.8982 53.7497 29.7002 45.9469 30.7067 38.0395C31.8497 29.0707 39.1742 22.264 46.5115 17.0153C49.4426 14.9184 52.4681 12.9293 55.588 11.1003C64.3909 5.92666 73.9137 2.0236 83.9704 0.576692C97.5933 -1.38627 112.307 1.59247 122.752 10.5809C134.518 20.7093 139.345 37.0433 138.885 52.6686C146.135 42.0993 157.315 34.0091 169.942 33.6661C183.05 33.3134 195.51 41.6192 202.076 53.0051C208.638 64.3876 209.817 78.3407 207.365 91.2583Z" fill="#E6E6E6"/>
<path d="M124.428 135.154C132.105 134.476 139.198 133.684 146.637 131.572C153.849 129.526 160.788 126.1 165.922 120.506C171.444 114.489 174.424 106.675 176.527 98.8966C177.7 94.5598 178.663 90.1623 179.572 85.7634C180.559 80.9904 181.435 76.1965 182.202 71.3814C183.727 61.7968 184.816 52.1558 185.469 42.4583C185.548 41.2812 185.62 40.1037 185.686 38.9257C185.727 38.1991 184.6 38.2014 184.559 38.9257C184.023 48.4846 183.058 58.0063 181.665 67.4907C180.291 76.809 178.532 86.087 176.301 95.2384C174.411 102.991 171.963 110.865 167.115 117.318C162.569 123.37 156.002 127.325 148.912 129.69C141.698 132.096 134.091 133.057 126.552 133.771C125.627 133.859 125.353 133.942 124.428 134.024C123.711 134.087 123.704 135.218 124.428 135.154Z" fill="white"/>
<path d="M3.204 119.381C12.8907 119.92 22.4789 121.614 31.7658 124.428C41.0567 127.237 49.9849 131.134 58.3655 136.04C66.4634 140.784 73.9809 146.461 80.7653 152.954C87.3497 159.26 93.2179 166.277 98.2628 173.878C103.331 181.498 107.531 189.663 110.784 198.222C111.18 199.269 111.563 200.322 111.93 201.38C112.168 202.062 113.257 201.769 113.017 201.08C109.973 192.341 105.961 183.972 101.055 176.13C96.1505 168.289 90.3944 161.016 83.8921 154.446C77.2857 147.774 69.9332 141.889 61.9807 136.909C45.2831 126.478 26.3564 120.167 6.75496 118.496C5.57256 118.397 4.38891 118.315 3.20401 118.251C2.47939 118.211 2.4816 119.341 3.204 119.381Z" fill="white"/>
<path d="M55.8906 12.425C62.0841 14.4004 67.9548 17.2775 73.3145 20.9641C78.7914 24.7568 83.7863 29.2056 88.1887 34.2117C92.8279 39.4779 96.9525 45.1786 100.506 51.2352C104.274 57.6302 107.548 64.3057 110.299 71.203C113.131 78.2842 115.513 85.5382 117.43 92.9214C119.38 100.392 120.902 107.968 121.991 115.613C123.074 123.177 123.729 130.796 123.954 138.433C124.18 145.737 123.965 153.047 123.309 160.325C122.709 167.114 121.614 173.85 120.032 180.479C118.627 186.466 116.646 192.302 114.119 197.906C113.534 199.178 112.912 200.432 112.255 201.669C111.915 202.31 112.887 202.882 113.228 202.239C116.022 196.887 118.252 191.257 119.883 185.442C121.714 178.968 123.041 172.361 123.852 165.682C124.751 158.434 125.189 151.137 125.163 143.834C125.147 136.162 124.691 128.497 123.799 120.877C122.906 113.162 121.581 105.504 119.829 97.9384C118.082 90.3606 115.865 82.8994 113.192 75.5981C110.615 68.5301 107.53 61.6591 103.962 55.0392C100.562 48.7222 96.6011 42.7261 92.1261 37.124C87.8762 31.79 83.0243 26.9679 77.6674 22.7541C72.5019 18.7032 66.7939 15.4011 60.7112 12.945C59.2247 12.3517 57.7177 11.8151 56.1902 11.3352C55.4968 11.1165 55.2001 12.2071 55.8906 12.425Z" fill="white"/>
<path d="M122.73 209C167.247 209 203.334 207.538 203.334 205.734C203.334 203.93 167.247 202.468 122.73 202.468C78.2139 202.468 42.1262 203.93 42.1262 205.734C42.1262 207.538 78.2139 209 122.73 209Z" fill="#E6E6E6"/>
<path d="M193.945 103.434C193.905 103.611 193.879 103.79 193.867 103.97L179.877 112.064L176.476 110.101L172.851 114.861L180.126 120.061L196.086 107.433C196.737 107.674 197.446 107.711 198.119 107.539C198.791 107.367 199.395 106.993 199.851 106.468C200.307 105.943 200.592 105.291 200.669 104.599C200.747 103.908 200.612 103.209 200.284 102.595C199.955 101.982 199.448 101.484 198.831 101.166C198.213 100.849 197.513 100.728 196.825 100.819C196.137 100.91 195.493 101.209 194.978 101.676C194.464 102.144 194.103 102.757 193.945 103.434Z" fill="#FFB8B8"/>
<path d="M162.083 108.4L173.099 116.274L178.026 110.079L167.317 101.462C166.857 101.092 166.325 100.819 165.756 100.661C165.187 100.504 164.591 100.465 164.006 100.546C163.421 100.627 162.859 100.827 162.354 101.134C161.848 101.441 161.411 101.848 161.068 102.331C160.4 103.271 160.132 104.438 160.322 105.576C160.513 106.715 161.146 107.73 162.083 108.4Z" fill="#8CCB2C"/>
<path d="M139.344 198.242L143.207 199.257L148.949 184.799L143.248 183.301L139.344 198.242Z" fill="#FFB8B8"/>
<path d="M149.716 204.811L137.577 201.621L138.806 196.917L146.255 198.875C147.498 199.202 148.562 200.011 149.211 201.124C149.86 202.237 150.041 203.563 149.716 204.811Z" fill="#2F2E41"/>
<path d="M173.678 201L177.608 200.295L176.771 184.756L170.97 185.795L173.678 201Z" fill="#FFB8B8"/>
<path d="M185.841 202.598L173.488 204.811L172.635 200.024L180.215 198.666C180.842 198.554 181.485 198.567 182.107 198.704C182.729 198.84 183.317 199.099 183.84 199.464C184.362 199.829 184.808 200.294 185.151 200.831C185.494 201.369 185.729 201.969 185.841 202.598Z" fill="#2F2E41"/>
<path d="M165.938 86.7192C166.907 86.9556 167.695 87.9454 168.168 89.092C168.604 90.2964 168.9 91.5475 169.049 92.8202C169.42 95.1903 169.777 97.7562 169.008 99.9514C168.107 102.524 165.705 103.872 163.622 103.239C161.539 102.605 159.882 100.228 159.316 97.4921C158.801 94.7273 159.133 91.8708 160.268 89.2991C160.86 87.9479 161.676 86.7013 162.76 86.0916C163.292 85.7692 163.925 85.6606 164.534 85.7877C165.142 85.9148 165.68 86.2682 166.039 86.7769" fill="#2F2E41"/>
<path d="M171.418 129.632L178.901 196.848L172.721 199.201L161.323 154.129L145.453 195.34L138.688 195.717C138.688 195.717 147.97 131.592 154.849 130.135L171.418 129.632Z" fill="#2F2E41"/>
<path d="M165.133 95.2972C169.551 95.2972 173.132 91.7056 173.132 87.2752C173.132 82.8448 169.551 79.2532 165.133 79.2532C160.715 79.2532 157.134 82.8448 157.134 87.2752C157.134 91.7056 160.715 95.2972 165.133 95.2972Z" fill="#FFB8B8"/>
<path d="M168.566 98.6627L159.922 97.532C159.922 97.532 154.285 104.316 154.661 116.001C155.036 127.685 153.721 131.265 153.721 131.265L171.744 131.592C169.138 127.999 180.036 107.365 168.566 98.6627Z" fill="#8CCB2C"/>
<path d="M173.21 133.225C173.029 133.227 172.849 133.242 172.672 133.272L161.613 121.466L162.741 117.697L157.291 115.247L153.909 123.539L169.819 136.231C169.733 136.922 169.859 137.622 170.181 138.239C170.502 138.857 171.003 139.361 171.617 139.686C172.231 140.01 172.929 140.14 173.618 140.057C174.307 139.974 174.955 139.683 175.475 139.222C175.995 138.761 176.362 138.152 176.529 137.476C176.696 136.8 176.653 136.09 176.407 135.439C176.161 134.788 175.724 134.227 175.153 133.832C174.581 133.437 173.904 133.225 173.21 133.225Z" fill="#FFB8B8"/>
<path d="M161.098 103.256L155.976 115.812L163.117 119.204L169.03 106.778C169.285 106.244 169.428 105.662 169.45 105.071C169.473 104.479 169.375 103.888 169.162 103.336C168.949 102.783 168.626 102.28 168.213 101.857C167.799 101.434 167.304 101.1 166.757 100.876C166.23 100.659 165.665 100.549 165.095 100.552C164.525 100.554 163.962 100.669 163.436 100.89C162.91 101.111 162.434 101.434 162.032 101.84C161.631 102.246 161.314 102.727 161.098 103.256Z" fill="#8CCB2C"/>
<path d="M163.041 94.5682C164.294 93.8431 164.428 92.0939 164.257 90.6528C164.087 89.2118 163.803 87.6053 164.647 86.4271C165.655 85.0208 167.68 84.9928 169.407 84.9469C171.133 84.901 173.235 84.3941 173.683 82.7213C173.978 81.6159 173.346 80.4298 172.438 79.736C171.531 79.0421 170.396 78.7354 169.292 78.4438C166.824 77.7917 164.275 77.134 161.748 77.4925C159.244 77.8475 156.981 79.1768 155.447 81.1927C153.914 83.2086 153.233 85.749 153.553 88.2643C153.962 91.4818 154.555 92.8867 154.166 94.3054C153.44 96.9478 150.313 98.6453 150.25 101.385C150.202 103.529 152.089 105.182 153.931 106.27C155.392 107.133 156.969 107.866 158.652 108.068C160.336 108.27 162.148 107.883 163.402 106.739C165.02 105.263 165.42 102.797 164.956 100.654C164.492 98.5103 163.302 96.607 162.125 94.7585" fill="#2F2E41"/>
<path d="M314.389 96.9707H198.775C197.998 96.9719 197.253 97.282 196.704 97.833C196.154 98.384 195.845 99.131 195.844 99.9102V174.379C195.845 175.158 196.154 175.905 196.704 176.456C197.253 177.007 197.998 177.317 198.775 177.318H314.389C315.166 177.317 315.911 177.007 316.46 176.456C317.009 175.905 317.319 175.158 317.32 174.379V99.9102C317.319 99.131 317.009 98.384 316.46 97.833C315.911 97.282 315.166 96.9719 314.389 96.9707ZM316.668 174.379C316.668 174.985 316.427 175.566 316 175.995C315.573 176.423 314.993 176.664 314.389 176.665H198.775C198.17 176.664 197.591 176.423 197.164 175.995C196.736 175.566 196.496 174.985 196.495 174.379V99.9102C196.496 99.3041 196.736 98.723 197.164 98.2943C197.591 97.8657 198.17 97.6246 198.775 97.6239H314.389C314.993 97.6246 315.573 97.8657 316 98.2943C316.427 98.723 316.668 99.3041 316.668 99.9102V174.379Z" fill="#3F3D56"/>
<path d="M223.453 134.04H205.215C204.481 134.039 203.777 133.747 203.259 133.226C202.74 132.706 202.448 132 202.447 131.264V112.973C202.448 112.237 202.74 111.532 203.259 111.011C203.777 110.491 204.481 110.198 205.215 110.197H223.453C224.187 110.198 224.89 110.491 225.409 111.011C225.928 111.532 226.22 112.237 226.221 112.973V131.264C226.22 132 225.928 132.706 225.409 133.226C224.89 133.747 224.187 134.039 223.453 134.04Z" fill="#8CCB2C"/>
<path d="M308.367 153.477H204.803C204.242 153.477 203.704 153.253 203.307 152.855C202.91 152.457 202.687 151.917 202.687 151.354C202.687 150.791 202.91 150.251 203.307 149.853C203.704 149.455 204.242 149.231 204.803 149.231H308.367C308.929 149.231 309.467 149.455 309.864 149.853C310.261 150.251 310.484 150.791 310.484 151.354C310.484 151.917 310.261 152.457 309.864 152.855C309.467 153.253 308.929 153.477 308.367 153.477Z" fill="#CCCCCC"/>
<path d="M308.437 143.189H204.873C204.311 143.189 203.773 142.965 203.376 142.567C202.979 142.169 202.756 141.629 202.756 141.066C202.756 140.502 202.979 139.962 203.376 139.564C203.773 139.166 204.311 138.943 204.873 138.943H308.437C308.998 138.943 309.537 139.166 309.934 139.564C310.331 139.962 310.554 140.502 310.554 141.066C310.554 141.629 310.331 142.169 309.934 142.567C309.537 142.965 308.998 143.189 308.437 143.189Z" fill="#CCCCCC"/>
<path d="M257.306 129.141H241.999C241.438 129.141 240.9 128.917 240.503 128.519C240.106 128.121 239.883 127.581 239.883 127.018C239.883 126.455 240.106 125.915 240.503 125.517C240.9 125.118 241.438 124.895 241.999 124.895H257.306C257.868 124.895 258.406 125.118 258.803 125.517C259.2 125.915 259.423 126.455 259.423 127.018C259.423 127.581 259.2 128.121 258.803 128.519C258.406 128.917 257.868 129.141 257.306 129.141Z" fill="#CCCCCC"/>
<path d="M308.437 118.692H241.999C241.438 118.692 240.9 118.469 240.503 118.07C240.106 117.672 239.883 117.132 239.883 116.569C239.883 116.006 240.106 115.466 240.503 115.068C240.9 114.67 241.438 114.446 241.999 114.446H308.437C308.998 114.446 309.537 114.67 309.934 115.068C310.331 115.466 310.554 116.006 310.554 116.569C310.554 117.132 310.331 117.672 309.934 118.07C309.537 118.469 308.998 118.692 308.437 118.692Z" fill="#CCCCCC"/>
<path d="M254.701 163.929H204.803C204.242 163.929 203.704 163.705 203.307 163.307C202.91 162.909 202.687 162.369 202.687 161.805C202.687 161.242 202.91 160.702 203.307 160.304C203.704 159.906 204.242 159.682 204.803 159.682H254.701C255.262 159.682 255.801 159.906 256.198 160.304C256.595 160.702 256.818 161.242 256.818 161.805C256.818 162.369 256.595 162.909 256.198 163.307C255.801 163.705 255.262 163.929 254.701 163.929Z" fill="#CCCCCC"/>
</g>
<defs>
<clipPath id="clip0_13_4845">
<rect width="317.472" height="209" fill="white" transform="translate(0.76416)"/>
</clipPath>
</defs>
</svg>
