<svg width="10" height="15" viewBox="0 0 10 15" fill="none" xmlns="http://www.w3.org/2000/svg">
<path d="M6.15708 14.1667L0.833333 8.62188V7.24354H3.54167C4.33125 7.24354 5.03208 6.99063 5.64417 6.48479C6.25639 5.97896 6.59403 5.30243 6.65708 4.45521H0V3.20521H6.48729C6.28313 2.63354 5.91507 2.16479 5.38313 1.79896C4.85104 1.43299 4.23722 1.25 3.54167 1.25H0V0H9.58333V1.25H6.58646C6.88243 1.48611 7.14153 1.77375 7.36375 2.11292C7.58597 2.45222 7.73611 2.81632 7.81417 3.20521H9.58333V4.45521H7.91979C7.86215 5.63576 7.40813 6.60396 6.55771 7.35979C5.70729 8.11563 4.70194 8.49354 3.54167 8.49354H2.44875L7.8925 14.1667H6.15708Z" fill="#606060"/>
</svg>
