<svg width="16" height="16" viewBox="0 0 16 16" fill="none" xmlns="http://www.w3.org/2000/svg">
<path fill-rule="evenodd" clip-rule="evenodd" d="M5.00001 3.16667C5.00001 3.021 6.50535 2 8.00001 2C9.49468 2 11 3.021 11 3.16667C11 3.68667 10.9447 3.99467 10.898 4.16233C10.867 4.27233 10.764 4.33333 10.6497 4.33333H5.35035C5.23601 4.33333 5.13301 4.27233 5.10201 4.16233C5.05535 3.99467 5.00001 3.68667 5.00001 3.16667ZM7.50001 3C7.41161 3 7.32682 3.03512 7.26431 3.09763C7.2018 3.16014 7.16668 3.24493 7.16668 3.33333C7.16668 3.42174 7.2018 3.50652 7.26431 3.56904C7.32682 3.63155 7.41161 3.66667 7.50001 3.66667H8.50001C8.58842 3.66667 8.6732 3.63155 8.73571 3.56904C8.79823 3.50652 8.83334 3.42174 8.83334 3.33333C8.83334 3.24493 8.79823 3.16014 8.73571 3.09763C8.6732 3.03512 8.58842 3 8.50001 3H7.50001ZM5.34601 6.406C4.23601 6.06267 4.51601 5.44933 4.93935 5H11.1533C11.492 5.43267 11.6737 6.01633 10.65 6.36567C10.6611 6.46456 10.6667 6.56489 10.6667 6.66667C10.6665 7.02776 10.5931 7.38506 10.4507 7.7169C10.3083 8.04874 10.1001 8.34822 9.83853 8.59717C9.57698 8.84612 9.2676 9.03936 8.92913 9.16517C8.59067 9.29098 8.23018 9.34675 7.86952 9.32908C7.50887 9.31141 7.15556 9.22068 6.83101 9.06238C6.50647 8.90409 6.21745 8.68153 5.98149 8.40821C5.74553 8.13488 5.56753 7.81648 5.45829 7.47231C5.34906 7.12814 5.31086 6.76537 5.34601 6.406ZM7.90935 6.66667C8.79001 6.66667 9.47268 6.62 9.99601 6.53867C9.99868 6.58089 10 6.62356 10 6.66667C9.99978 6.93358 9.94611 7.19775 9.84219 7.4436C9.73827 7.68945 9.58618 7.91202 9.3949 8.09818C9.20362 8.28433 8.97701 8.43032 8.72843 8.52753C8.47985 8.62475 8.21432 8.67122 7.9475 8.66421C7.68067 8.6572 7.41795 8.59685 7.17482 8.48672C6.93168 8.37659 6.71305 8.21891 6.5318 8.02297C6.35056 7.82702 6.21037 7.59678 6.11949 7.34582C6.02862 7.09485 5.9889 6.82823 6.00268 6.56167C6.49035 6.629 7.11535 6.66667 7.90935 6.66667ZM10.8057 11.5333C10.5042 11.0629 10.0892 10.6759 9.59891 10.4079C9.10861 10.14 8.55876 9.99967 8.00001 10C7.44103 9.99958 6.89094 10.1399 6.40044 10.408C5.90995 10.676 5.49482 11.0633 5.19335 11.534C5.08121 11.3619 4.90944 11.2372 4.71101 11.184L4.06701 11.0117C3.85356 10.9544 3.62611 10.9843 3.43471 11.0948C3.2433 11.2053 3.1036 11.3872 3.04635 11.6007L2.78768 12.5667C2.75935 12.6724 2.75212 12.7826 2.76641 12.8911C2.78069 12.9997 2.81621 13.1043 2.87094 13.1991C2.92566 13.2938 2.99852 13.3769 3.08536 13.4435C3.17219 13.5102 3.27129 13.559 3.37701 13.5873L4.02068 13.76C4.12896 13.789 4.24199 13.7959 4.35299 13.7802C4.46399 13.7645 4.57068 13.7266 4.66668 13.6687C4.66694 13.7571 4.70232 13.8418 4.76502 13.9041C4.82772 13.9664 4.91261 14.0013 5.00101 14.001C5.08942 14.0007 5.1741 13.9654 5.23642 13.9027C5.29875 13.84 5.33361 13.7551 5.33335 13.6667V13.3333C5.33335 13.2062 5.34201 13.0814 5.35935 12.959L7.09401 13.424C7.17453 13.5963 7.30254 13.7422 7.46302 13.8443C7.6235 13.9465 7.80978 14.0007 8.00001 14.0007C8.19024 14.0007 8.37653 13.9465 8.537 13.8443C8.69748 13.7422 8.82549 13.5963 8.90601 13.424L10.6407 12.959C10.6578 13.0814 10.6665 13.2062 10.6667 13.3333V13.6667C10.6662 13.7551 10.7009 13.84 10.7631 13.9029C10.8253 13.9657 10.9099 14.0012 10.9983 14.0017C11.0868 14.0021 11.1717 13.9674 11.2345 13.9052C11.2974 13.843 11.3329 13.7584 11.3333 13.67C11.52 13.782 11.7507 13.821 11.9777 13.76L12.6217 13.5877C12.7274 13.5594 12.8265 13.5105 12.9133 13.4439C13.0002 13.3773 13.073 13.2942 13.1278 13.1994C13.1825 13.1046 13.218 13 13.2323 12.8915C13.2466 12.783 13.2393 12.6727 13.211 12.567L12.952 11.601C12.8948 11.3876 12.7551 11.2056 12.5637 11.0951C12.3722 10.9847 12.1448 10.9548 11.9313 11.012L11.2873 11.1843C11.0894 11.2374 10.9179 11.3618 10.8057 11.5333ZM5.53435 12.3153C5.71451 11.88 6.00669 11.5 6.3812 11.2141C6.75571 10.9281 7.19921 10.7464 7.66668 10.6873V12.057C7.5172 12.1098 7.38242 12.1974 7.27346 12.3126C7.1645 12.4277 7.08449 12.5672 7.04001 12.7193L5.53435 12.3153ZM10.4657 12.3153C10.2855 11.88 9.99334 11.5 9.61883 11.2141C9.24432 10.9281 8.80081 10.7464 8.33334 10.6873V12.057C8.63468 12.1637 8.87001 12.4103 8.96001 12.7193L10.4657 12.3153ZM8.00001 13.3333C8.08842 13.3333 8.1732 13.2982 8.23571 13.2357C8.29823 13.1732 8.33334 13.0884 8.33334 13C8.33334 12.9116 8.29823 12.8268 8.23571 12.7643C8.1732 12.7018 8.08842 12.6667 8.00001 12.6667C7.91161 12.6667 7.82682 12.7018 7.76431 12.7643C7.7018 12.8268 7.66668 12.9116 7.66668 13C7.66668 13.0884 7.7018 13.1732 7.76431 13.2357C7.82682 13.2982 7.91161 13.3333 8.00001 13.3333Z" fill="#8CCB2C"/>
</svg>
