<svg width="12" height="12" viewBox="0 0 12 12" fill="none" xmlns="http://www.w3.org/2000/svg">
<g clip-path="url(#clip0_13_8736)">
<path fill-rule="evenodd" clip-rule="evenodd" d="M6.30034 0.19654C6.31972 0.19654 6.33633 0.199308 6.35571 0.199308C6.37508 0.199308 6.39169 0.202076 6.41107 0.202076L6.43598 0.204845L6.46643 0.207613C6.49688 0.210381 6.5301 0.213149 6.56055 0.215917C6.57439 0.215917 6.58823 0.218685 6.60484 0.218685C6.64083 0.221454 6.67958 0.22699 6.71557 0.229758C6.73771 0.232526 6.75986 0.235294 6.78477 0.238062C6.80138 0.240831 6.81522 0.240831 6.83183 0.243599C6.85675 0.246367 6.88166 0.251903 6.90934 0.254671L6.92872 0.25744C6.98685 0.265744 7.04498 0.276817 7.10311 0.287889H7.10865C8.71972 0.586851 10.101 1.54187 10.937 2.86782L10.9564 2.8955C10.9675 2.91488 10.9785 2.93426 10.9924 2.95363L11.0256 3.01176C11.0339 3.02561 11.0422 3.04221 11.0533 3.05606C11.0727 3.08651 11.0893 3.11972 11.1059 3.15017L11.1197 3.17232C11.1723 3.2692 11.2221 3.36609 11.2692 3.46574C11.7093 4.38478 11.9031 5.42561 11.7785 6.50519L11.7758 6.52734C11.6983 7.3218 11.4602 8.0692 11.0948 8.73633L11.0699 8.78339C11.0588 8.80554 11.045 8.82491 11.0339 8.84706C11.0201 8.8692 11.009 8.89135 10.9952 8.91349L10.9675 8.95779C10.9509 8.9827 10.9343 9.01038 10.9176 9.03529L10.8927 9.07405C10.8761 9.09896 10.8595 9.12388 10.8429 9.14879L10.8152 9.18754C10.7986 9.21246 10.7792 9.23737 10.7626 9.26505L10.7349 9.30381C10.7183 9.32872 10.699 9.35086 10.6824 9.37578C10.6713 9.38962 10.6602 9.40346 10.6491 9.42007C10.6325 9.43945 10.6187 9.46159 10.6021 9.48097C10.5882 9.50035 10.5716 9.51972 10.5578 9.5391C10.5467 9.55294 10.5329 9.56955 10.5218 9.58339C10.5024 9.6083 10.483 9.63322 10.4609 9.65536L10.4443 9.67474C9.55571 10.7294 8.29619 11.4657 6.85951 11.6734L6.83737 11.6761H6.83183C6.79861 11.6817 6.7654 11.6844 6.73218 11.69C6.7128 11.6927 6.69066 11.6955 6.67128 11.6983C6.6436 11.701 6.61868 11.7038 6.591 11.7066C6.56886 11.7093 6.54671 11.7121 6.52457 11.7121C6.49412 11.7149 6.46643 11.7176 6.43598 11.7176L6.39446 11.7204C6.32526 11.726 6.25605 11.7287 6.18685 11.7315C5.06574 11.7619 4.0083 11.4713 3.10865 10.9426H3.10588C3.07266 10.9232 3.04221 10.9038 3.009 10.8844L2.97024 10.8595C2.9481 10.8457 2.92318 10.8318 2.90104 10.8152C2.88166 10.8042 2.86505 10.7903 2.84567 10.7792C2.8263 10.7654 2.80692 10.7543 2.78754 10.7405C2.7654 10.7266 2.74602 10.7128 2.72387 10.6962C2.70727 10.6851 2.69342 10.674 2.67682 10.663C2.65467 10.6464 2.63252 10.6325 2.61038 10.6159C2.59377 10.6048 2.57993 10.5938 2.56332 10.5799C2.54118 10.5633 2.5218 10.5495 2.50242 10.5329C2.48581 10.519 2.4692 10.5052 2.45259 10.4941C2.43322 10.4803 2.41384 10.4637 2.39723 10.4498C2.38062 10.436 2.36124 10.4221 2.34464 10.4083C2.32803 10.3945 2.31142 10.3806 2.29481 10.3668C2.27266 10.3502 2.25329 10.3308 2.23114 10.3114L2.20069 10.2837C1.40623 9.58062 0.805535 8.65882 0.492732 7.61246C0.484428 7.58754 0.476123 7.55986 0.470587 7.53495V7.53218L0.467819 7.51834C0.462283 7.49896 0.456746 7.47682 0.45121 7.45744V7.45467V7.4519V7.44913V7.44637L0.445674 7.42422L0.442905 7.41592L0.437369 7.38824C0.429065 7.35502 0.42076 7.3218 0.412455 7.29135L0.409687 7.27751L0.406919 7.26367C0.31557 6.86505 0.265743 6.45536 0.260206 6.0346C0.260206 6.0263 0.260206 6.01522 0.260206 6.00692C0.238061 5.1737 0.398615 4.37647 0.711417 3.65675C0.719722 3.63737 0.728026 3.62076 0.736331 3.60138L0.755708 3.55986C0.769549 3.52664 0.786158 3.49619 0.799999 3.46574L0.808303 3.44637C0.902421 3.2526 1.00484 3.06713 1.11834 2.88443C2.18962 1.17093 4.15778 0.0913497 6.31695 0.199308L6.30034 0.19654ZM5.46436 5.29827H6.58823C6.84567 5.29827 7.05605 5.50865 7.05605 5.76609V5.95433C7.05605 6.4692 6.63529 6.89273 6.11765 6.89273H5.92941C5.41453 6.89273 4.991 6.47197 4.991 5.95433V5.76609C4.991 5.50865 5.20138 5.29827 5.45882 5.29827H5.46436ZM5.89619 1.47266C5.97093 1.4699 6.0429 1.4699 6.11765 1.4699C6.15917 1.4699 6.19792 1.47266 6.23944 1.47266C6.3391 1.4782 6.43875 1.48651 6.54117 1.49758C7.5654 1.61661 8.37647 1.97924 8.99377 2.49412C9.77993 3.18062 10.2616 4.13841 10.4471 5.14602C10.3972 5.27612 10.2256 5.40069 9.93771 5.45606C9.93218 5.45606 9.92664 5.45606 9.91834 5.45606C9.9128 5.45606 9.90726 5.45606 9.89896 5.45606C9.89342 5.45606 9.88789 5.45606 9.87958 5.45606C9.87405 5.45606 9.86851 5.45606 9.86021 5.45329C9.85467 5.45329 9.84636 5.45052 9.84083 5.45052C9.83529 5.45052 9.82699 5.44775 9.82145 5.44775C9.81592 5.44775 9.80761 5.44498 9.80207 5.44498C9.79654 5.44498 9.78823 5.44221 9.7827 5.43945C9.77716 5.43668 9.76886 5.43668 9.76332 5.43391C9.75778 5.43114 9.74948 5.43114 9.74394 5.42837L9.72457 5.42284L9.70519 5.4173L9.68581 5.41176L9.66643 5.40346L9.64706 5.39516L9.62491 5.38685L9.60277 5.37855L9.58062 5.37024L9.55848 5.36194L9.53633 5.35086L9.51418 5.33979L9.49204 5.32872L9.46989 5.31765L9.44775 5.30657L9.4256 5.2955L9.40346 5.28443L9.38131 5.27336L9.35917 5.26228L9.33702 5.24844L9.31488 5.2346L9.28996 5.22076L9.26505 5.20692L9.24014 5.19308L9.21522 5.17924L9.19031 5.1654L9.1654 5.15156L9.14048 5.13772L9.11557 5.12388L9.09066 5.11003L9.06574 5.09619L9.04083 5.08235L9.01591 5.06851L8.991 5.05467L8.96609 5.04083L8.94117 5.02699L8.91626 5.01315L8.88858 4.99931L8.8609 4.98547L8.83322 4.97163L8.80553 4.95779L8.77785 4.94394L8.75017 4.9301L8.72249 4.91626L8.69481 4.90242L8.66713 4.88858L8.63944 4.87474L8.61176 4.8609L8.58408 4.84706L8.5564 4.83322L8.52872 4.81938L8.50104 4.80554L8.47335 4.7917L8.44567 4.78062L8.41799 4.76955C8.38754 4.75571 8.35432 4.74464 8.32387 4.7308C8.29342 4.71696 8.26297 4.70588 8.23252 4.69481C8.20207 4.68374 8.17162 4.6699 8.14117 4.65882C8.11072 4.64775 8.08304 4.63668 8.05259 4.62561C8.02214 4.61453 7.99446 4.60346 7.96401 4.59239C7.93633 4.58132 7.90588 4.57024 7.8782 4.55917C7.85052 4.5481 7.82284 4.53979 7.79239 4.52872C7.7647 4.51765 7.73702 4.50934 7.70934 4.49827C7.68166 4.48997 7.65398 4.47889 7.6263 4.47059C7.59861 4.46228 7.57093 4.45121 7.54602 4.44291C7.51834 4.4346 7.49342 4.4263 7.46574 4.41799C7.43806 4.40969 7.41315 4.40138 7.38823 4.39308C7.36332 4.38478 7.33564 4.37647 7.31072 4.37093C6.8955 4.24914 6.50242 4.18824 6.11211 4.18547C5.71626 4.15225 5.30934 4.17716 4.87474 4.26298C4.84983 4.26851 4.82214 4.27405 4.79446 4.27958C4.76678 4.28512 4.74187 4.29066 4.71419 4.29619C4.6865 4.30173 4.65882 4.30727 4.63391 4.31557C4.60623 4.32111 4.57855 4.32941 4.55086 4.33495C4.52318 4.34048 4.4955 4.34879 4.46782 4.35709C4.44014 4.3654 4.41246 4.37093 4.38201 4.37924C4.35432 4.38754 4.32387 4.39308 4.29619 4.40138C4.26574 4.40969 4.23806 4.41799 4.20761 4.4263C4.17716 4.4346 4.14671 4.44291 4.11903 4.45121C4.08858 4.45952 4.05813 4.46782 4.02768 4.47889C3.99723 4.4872 3.96678 4.49827 3.93356 4.50657C3.90311 4.51488 3.86989 4.52595 3.83944 4.53426C3.80623 4.54533 3.77578 4.55363 3.74256 4.56471L3.71211 4.57301L3.68166 4.58408L3.65121 4.59516L3.62076 4.60623L3.59031 4.6173L3.55986 4.62837L3.52941 4.63945L3.50173 4.65052L3.47405 4.66159L3.44637 4.67266L3.41868 4.68374L3.391 4.69481L3.36332 4.70588L3.33564 4.71696L3.30796 4.72803L3.28028 4.7391L3.25259 4.75017L3.22491 4.76125L3.19723 4.77232L3.16955 4.78339L3.14187 4.79446L3.11419 4.80554L3.0865 4.81661L3.05882 4.82768L3.03114 4.83875L3.00623 4.84983L2.98131 4.8609L2.9564 4.87197L2.93149 4.88305L2.90657 4.89412L2.88166 4.90519L2.85675 4.91626L2.83183 4.92734L2.80692 4.93841L2.78201 4.94948L2.75709 4.96055L2.73218 4.97163L2.70727 4.9827L2.68235 4.991L2.66021 4.99931L2.63806 5.00761L2.61592 5.01592L2.59377 5.02422L2.57162 5.03253L2.54948 5.04083L2.52733 5.04913L2.50519 5.05744L2.48304 5.06298L2.4609 5.06851L2.43875 5.07405L2.41661 5.07958L2.39446 5.08512L2.37509 5.09066L2.35571 5.09343C2.35017 5.09343 2.34187 5.09619 2.33633 5.09619C2.33079 5.09619 2.32249 5.09896 2.31695 5.09896C2.31142 5.09896 2.30311 5.10173 2.29758 5.10173L2.2782 5.1045C2.27266 5.1045 2.26436 5.1045 2.25882 5.1045C2.25329 5.1045 2.24498 5.1045 2.23944 5.1045C2.23391 5.1045 2.2256 5.1045 2.22007 5.1045C2.21453 5.1045 2.209 5.1045 2.20069 5.1045C2.19515 5.1045 2.18962 5.1045 2.18131 5.1045C2.17578 5.1045 2.17024 5.1045 2.16194 5.10173C1.87958 5.02145 1.71903 4.88305 1.68028 4.74741C1.9654 3.70934 2.63806 2.73772 3.60415 2.12042L3.63183 2.10381C4.25744 1.71903 5.01315 1.4782 5.89066 1.45329L5.89619 1.47266ZM7.21938 10.3031C7.2 10.2948 7.18339 10.2837 7.16678 10.2727C7.15017 10.2616 7.13633 10.2505 7.11972 10.2367C7.07543 10.1979 7.03668 10.1509 7.00346 10.0927C6.98131 10.054 6.96194 10.0125 6.94533 9.96263C6.93702 9.93772 6.92872 9.9128 6.92318 9.88789C6.91765 9.86298 6.91211 9.83529 6.90657 9.80484C6.90104 9.77716 6.89827 9.74671 6.89273 9.71626C6.88996 9.68581 6.8872 9.65259 6.88443 9.61938C6.87612 8.71142 7.05052 8.29066 7.29412 8.0526C7.66505 7.91972 8.06367 7.90035 8.34879 7.35779C8.37924 7.31349 8.40969 7.26367 8.43737 7.2083C8.46228 7.16125 8.4872 7.10588 8.50934 7.04775H8.51764H8.53702H8.5564H8.57578H8.59515H8.61453H8.63391H8.65329H8.67266H8.69204H8.71142H8.73079L8.75017 7.05052L8.76955 7.05329L8.78893 7.05606L8.8083 7.05882L8.82768 7.06159L8.84706 7.06436L8.86643 7.06713L8.88581 7.0699L8.90519 7.07266L8.92457 7.07543L8.94394 7.0782L8.96332 7.08097L8.9827 7.08374L9.00207 7.0865L9.02145 7.08927L9.04083 7.09204L9.06021 7.09481L9.07958 7.09758L9.09896 7.10035L9.11834 7.10311L9.13771 7.10588L9.15709 7.10865L9.17647 7.11142L9.19585 7.11419L9.21522 7.11695L9.2346 7.11972L9.25398 7.12249L9.27335 7.12803L9.29273 7.13356L9.31211 7.1391L9.33149 7.14464L9.35086 7.15017L9.37024 7.15571L9.38962 7.16125L9.40899 7.16678L9.42837 7.17232L9.44775 7.17785L9.46713 7.18339L9.4865 7.18893L9.50588 7.19446L9.52526 7.2L9.54463 7.20554L9.56401 7.21107L9.58339 7.21661L9.60277 7.22215L9.62214 7.22768L9.64152 7.23322L9.6609 7.23875L9.68027 7.24429L9.69965 7.24983L9.71903 7.25536L9.73841 7.2609L9.75778 7.26644L9.77716 7.27197L9.79654 7.27751L9.81592 7.28304L9.83529 7.28858L9.85467 7.29412L9.87128 7.30242L9.88789 7.31073L9.9045 7.31903L9.92111 7.32734L9.93771 7.33564L9.95432 7.34394L9.97093 7.35225L9.98477 7.36055L9.99861 7.36886L10.0125 7.37716L10.0263 7.38547L10.0401 7.39377L10.054 7.40208L10.0678 7.41038L10.0817 7.41868L10.0927 7.42699L10.1038 7.43529L10.1149 7.4436C10.1232 7.44913 10.1287 7.45744 10.137 7.46298L10.1481 7.47405L10.1592 7.48512L10.1702 7.49619L10.1758 7.50173C10.1675 7.52388 10.1592 7.54879 10.1509 7.57093L10.1481 7.57924C10.1398 7.59862 10.1343 7.61522 10.1259 7.6346L10.1149 7.65952C10.1093 7.67336 10.1038 7.6872 10.0983 7.69827L10.0817 7.73426L10.0706 7.76194C10.0623 7.77855 10.0567 7.79516 10.0484 7.81176L10.0429 7.82284C9.78823 8.38201 9.4256 8.88028 8.97716 9.28996L8.95778 9.30657C8.94671 9.31765 8.93287 9.32872 8.9218 9.33979C8.91072 9.35086 8.89688 9.36194 8.88581 9.37024L8.86643 9.38685C8.42353 9.76609 7.90865 10.0567 7.34948 10.2422L7.34394 10.245C7.32457 10.2505 7.30519 10.2588 7.28581 10.2644L7.26367 10.2699C7.24983 10.2754 7.23598 10.2782 7.22214 10.2837L7.18339 10.2948L7.15571 10.3031L7.14187 10.3059L7.21938 10.3031ZM1.69135 7.17509L1.68581 7.15294L1.68304 7.14187L1.68028 7.12803L1.68581 7.12249L1.69688 7.11419L1.70796 7.10588L1.71903 7.09758L1.74394 7.08097L1.75778 7.07266L1.77162 7.06436L1.78547 7.05606L1.79931 7.04775L1.81315 7.03945L1.82699 7.03114L1.84083 7.02284L1.85467 7.01453L1.86851 7.00623L1.88512 7.00069L1.90173 6.99516L1.91834 6.98962L1.93495 6.98408L1.95156 6.97855L1.96816 6.97301L1.98477 6.96747L2.00138 6.96194L2.02076 6.9564L2.04014 6.95086L2.05951 6.94533L2.07889 6.93979L2.09827 6.93426L2.11765 6.92872L2.13702 6.92318L2.1564 6.92041L2.17855 6.91765L2.20069 6.91488L2.22284 6.91211L2.24498 6.90934L2.26713 6.90657L2.28927 6.90381L2.31142 6.90104L2.33356 6.89827L2.35571 6.8955L2.37785 6.89273L2.4 6.88997L2.42214 6.8872L2.44429 6.88443L2.46643 6.88166L2.48858 6.87889L2.51073 6.87612L2.53287 6.87336L2.55502 6.87059L2.57716 6.86782L2.59931 6.86505L2.62145 6.86228L2.6436 6.85952L2.66574 6.85675L2.68789 6.85398L2.71003 6.85121L2.73218 6.84844L2.75432 6.84567L2.77647 6.84291L2.79861 6.84014L2.82076 6.83737L2.84291 6.8346L2.86505 6.83183L2.8872 6.82907L2.90934 6.8263H2.93149H2.95363H2.97301H2.99239H3.01176H3.03114H3.05052H3.06989H3.08927H3.10865H3.12803H3.1474H3.16678H3.18616H3.20553H3.22491H3.24429H3.26367H3.28304H3.30242H3.3218H3.34118H3.36055H3.37993H3.39931L3.41868 6.82907L3.43806 6.83183L3.45744 6.8346H3.46574C3.49342 6.93149 3.52664 7.01453 3.56816 7.0865C3.59308 7.15017 3.62076 7.2083 3.64844 7.2609C3.88927 7.72872 4.25744 7.78408 4.59239 7.9391C4.81107 8.19931 4.94671 8.63114 4.8609 9.53356C4.85536 9.56678 4.84983 9.59723 4.84429 9.63045C4.83875 9.6609 4.83045 9.69135 4.82491 9.71903C4.81661 9.74671 4.8083 9.77439 4.8 9.79931C4.79169 9.82422 4.78062 9.84913 4.77232 9.87128C4.75294 9.91834 4.72803 9.95709 4.70311 9.99585C4.66436 10.0512 4.62284 10.0955 4.57578 10.1287C4.55917 10.1398 4.54256 10.1509 4.52595 10.1592C4.50657 10.1702 4.48996 10.1785 4.47059 10.1869C4.44844 10.1785 4.4263 10.1702 4.40415 10.1619L4.39308 10.1564C4.37647 10.1509 4.35986 10.1426 4.34325 10.137L4.31557 10.126L4.28235 10.1121C4.26851 10.1066 4.25467 10.101 4.24083 10.0927L4.22145 10.0844C4.20207 10.0761 4.1827 10.0678 4.16332 10.0595L4.16055 10.0567C3.6263 9.81038 3.1474 9.45882 2.75156 9.03253L2.73771 9.01868C2.72664 9.00484 2.7128 8.99377 2.70173 8.97993L2.67682 8.95225L2.65467 8.92734C2.64083 8.91073 2.62422 8.89412 2.61038 8.87751L2.60761 8.87474C2.23391 8.42907 1.94602 7.91419 1.76609 7.35225L1.76055 7.33841C1.75502 7.3218 1.74948 7.30519 1.74394 7.28858L1.73564 7.25813V7.25536L1.7301 7.23322L1.7218 7.2083L1.69135 7.17509Z" fill="#8CCB2C"/>
</g>
<defs>
<clipPath id="clip0_13_8736">
<rect width="12" height="12" fill="white"/>
</clipPath>
</defs>
</svg>
