<svg width="12" height="12" viewBox="0 0 12 12" fill="none" xmlns="http://www.w3.org/2000/svg">
<path fill-rule="evenodd" clip-rule="evenodd" d="M6.04216 0.00464548C6.06154 0.00464548 6.07814 0.00741364 6.09752 0.00741364C6.1169 0.00741364 6.13351 0.0101818 6.15288 0.0101818L6.1778 0.01295L6.20825 0.0157181C6.2387 0.0184863 6.27192 0.0212545 6.30237 0.0240226C6.31621 0.0240226 6.33005 0.0267908 6.34666 0.0267908C6.38264 0.029559 6.4214 0.0350953 6.45738 0.0378635C6.47953 0.0406316 6.50167 0.0433998 6.52659 0.046168C6.5432 0.0489361 6.55704 0.0489361 6.57365 0.0517043C6.59856 0.0544725 6.62347 0.0600088 6.65115 0.062777L6.67053 0.0655451C6.72866 0.0738496 6.78679 0.0849223 6.84493 0.0959949H6.85046C8.46154 0.394957 9.84285 1.34997 10.6788 2.67593L10.6982 2.70361C10.7093 2.72298 10.7204 2.74236 10.7342 2.76174L10.7674 2.81987C10.7757 2.83371 10.784 2.85032 10.7951 2.86416C10.8145 2.89461 10.8311 2.92783 10.8477 2.95828L10.8615 2.98042C10.9141 3.07731 10.964 3.1742 11.011 3.27385C11.4512 4.19288 11.6449 5.23371 11.5204 6.3133L11.5176 6.33544C11.4401 7.1299 11.202 7.87731 10.8366 8.54444L10.8117 8.5915C10.8006 8.61364 10.7868 8.63302 10.7757 8.65516C10.7619 8.67731 10.7508 8.69945 10.737 8.7216L10.7093 8.76589C10.6927 8.7908 10.6761 8.81849 10.6595 8.8434L10.6345 8.88215C10.6179 8.90707 10.6013 8.93198 10.5847 8.95689L10.557 8.99565C10.5404 9.02056 10.5211 9.04548 10.5044 9.07316L10.4768 9.11191C10.4602 9.13682 10.4408 9.15897 10.4242 9.18388C10.4131 9.19772 10.402 9.21157 10.3909 9.22817C10.3743 9.24755 10.3605 9.2697 10.3439 9.28907C10.33 9.30845 10.3134 9.32783 10.2996 9.34721C10.2885 9.36105 10.2747 9.37766 10.2636 9.3915C10.2442 9.41641 10.2249 9.44132 10.2027 9.46347L10.1861 9.48285C9.29752 10.5375 8.03801 11.2738 6.60133 11.4815L6.57918 11.4842H6.57365C6.54043 11.4898 6.50721 11.4925 6.47399 11.4981C6.45461 11.5008 6.43247 11.5036 6.41309 11.5064C6.38541 11.5091 6.3605 11.5119 6.33282 11.5147C6.31067 11.5174 6.28852 11.5202 6.26638 11.5202C6.23593 11.523 6.20825 11.5258 6.1778 11.5258L6.13628 11.5285C6.06707 11.5341 5.99787 11.5368 5.92866 11.5396C4.80756 11.57 3.75012 11.2794 2.85046 10.7507H2.84769C2.81448 10.7313 2.78403 10.7119 2.75081 10.6925L2.71205 10.6676C2.68991 10.6538 2.665 10.6399 2.64285 10.6233C2.62347 10.6123 2.60686 10.5984 2.58749 10.5873C2.56811 10.5735 2.54873 10.5624 2.52936 10.5486C2.50721 10.5347 2.48783 10.5209 2.46569 10.5043C2.44908 10.4932 2.43524 10.4822 2.41863 10.4711C2.39648 10.4545 2.37434 10.4406 2.35219 10.424C2.33558 10.4129 2.32174 10.4019 2.30513 10.388C2.28299 10.3714 2.26361 10.3576 2.24423 10.341C2.22763 10.3271 2.21102 10.3133 2.19441 10.3022C2.17503 10.2884 2.15565 10.2718 2.13904 10.2579C2.12244 10.2441 2.10306 10.2303 2.08645 10.2164C2.06984 10.2026 2.05323 10.1887 2.03662 10.1749C2.01448 10.1583 1.9951 10.1389 1.97295 10.1195L1.9425 10.0918C1.14804 9.38873 0.547349 8.46693 0.234546 7.42056C0.226241 7.39565 0.217937 7.36797 0.212401 7.34305V7.34029L0.209633 7.32644C0.204096 7.30707 0.19856 7.28492 0.193024 7.26554V7.26278V7.26001V7.25724V7.25447L0.187487 7.23233L0.184719 7.22402L0.179183 7.19634C0.170878 7.16312 0.162574 7.1299 0.154269 7.09945L0.151501 7.08561L0.148733 7.07177C0.0573834 6.67316 0.00755637 6.26347 0.00202004 5.84271C0.00202004 5.8344 0.00202004 5.82333 0.00202004 5.81503C-0.0201253 4.98181 0.140428 4.18458 0.453231 3.46485C0.461536 3.44548 0.46984 3.42887 0.478145 3.40949L0.497522 3.36797C0.511363 3.33475 0.527972 3.3043 0.541812 3.27385L0.550117 3.25447C0.644235 3.0607 0.746657 2.87523 0.860151 2.69253C1.93143 0.97904 3.8996 -0.100545 6.05877 0.00741364L6.04216 0.00464548ZM5.20617 5.10638H6.33005C6.58749 5.10638 6.79787 5.31676 6.79787 5.5742V5.76243C6.79787 6.27731 6.37711 6.70084 5.85946 6.70084H5.67122C5.15634 6.70084 4.73282 6.28008 4.73282 5.76243V5.5742C4.73282 5.31676 4.9432 5.10638 5.20064 5.10638H5.20617ZM5.63801 1.28077C5.71275 1.278 5.78472 1.278 5.85946 1.278C5.90098 1.278 5.93974 1.28077 5.98126 1.28077C6.08091 1.28631 6.18057 1.29461 6.28299 1.30568C7.30721 1.42471 8.11828 1.78734 8.73558 2.30222C9.52174 2.98873 10.0034 3.94651 10.1889 4.95413C10.139 5.08423 9.96742 5.2088 9.67953 5.26416C9.67399 5.26416 9.66846 5.26416 9.66015 5.26416C9.65461 5.26416 9.64908 5.26416 9.64077 5.26416C9.63524 5.26416 9.6297 5.26416 9.6214 5.26416C9.61586 5.26416 9.61032 5.26416 9.60202 5.26139C9.59648 5.26139 9.58818 5.25862 9.58264 5.25862C9.57711 5.25862 9.5688 5.25586 9.56326 5.25586C9.55773 5.25586 9.54942 5.25309 9.54389 5.25309C9.53835 5.25309 9.53005 5.25032 9.52451 5.24755C9.51897 5.24478 9.51067 5.24478 9.50513 5.24202C9.4996 5.23925 9.49129 5.23925 9.48576 5.23648L9.46638 5.23094L9.447 5.22541L9.42762 5.21987L9.40825 5.21157L9.38887 5.20326L9.36672 5.19496L9.34458 5.18665L9.32243 5.17835L9.30029 5.17004L9.27814 5.15897L9.256 5.1479L9.23385 5.13683L9.21171 5.12575L9.18956 5.11468L9.16742 5.10361L9.14527 5.09253L9.12313 5.08146L9.10098 5.07039L9.07884 5.05655L9.05669 5.04271L9.03178 5.02887L9.00686 5.01503L8.98195 5.00118L8.95704 4.98734L8.93212 4.9735L8.90721 4.95966L8.8823 4.94582L8.85738 4.93198L8.83247 4.91814L8.80756 4.9043L8.78264 4.89046L8.75773 4.87662L8.73282 4.86278L8.7079 4.84894L8.68299 4.83509L8.65807 4.82125L8.63039 4.80741L8.60271 4.79357L8.57503 4.77973L8.54735 4.76589L8.51967 4.75205L8.49198 4.73821L8.4643 4.72437L8.43662 4.71053L8.40894 4.69669L8.38126 4.68285L8.35358 4.669L8.3259 4.65516L8.29821 4.64132L8.27053 4.62748L8.24285 4.61364L8.21517 4.5998L8.18749 4.58873L8.15981 4.57766C8.12936 4.56381 8.09614 4.55274 8.06569 4.5389C8.03524 4.52506 8.00479 4.51399 7.97434 4.50292C7.94389 4.49184 7.91344 4.478 7.88299 4.46693C7.85254 4.45586 7.82486 4.44478 7.79441 4.43371C7.76396 4.42264 7.73628 4.41157 7.70583 4.40049C7.67814 4.38942 7.64769 4.37835 7.62001 4.36728C7.59233 4.3562 7.56465 4.3479 7.5342 4.33683C7.50652 4.32575 7.47884 4.31745 7.45115 4.30638C7.42347 4.29807 7.39579 4.287 7.36811 4.27869C7.34043 4.27039 7.31275 4.25932 7.28783 4.25101C7.26015 4.24271 7.23524 4.2344 7.20756 4.2261C7.17987 4.21779 7.15496 4.20949 7.13005 4.20119C7.10513 4.19288 7.07745 4.18458 7.05254 4.17904C6.63731 4.05724 6.24423 3.99634 5.85392 3.99357C5.45808 3.96035 5.05115 3.98527 4.61655 4.07108C4.59164 4.07662 4.56396 4.08215 4.53628 4.08769C4.50859 4.09323 4.48368 4.09876 4.456 4.1043C4.42832 4.10984 4.40064 4.11537 4.37572 4.12368C4.34804 4.12921 4.32036 4.13752 4.29268 4.14305C4.265 4.14859 4.23731 4.15689 4.20963 4.1652C4.18195 4.1735 4.15427 4.17904 4.12382 4.18734C4.09614 4.19565 4.06569 4.20119 4.03801 4.20949C4.00756 4.21779 3.97987 4.2261 3.94942 4.2344C3.91897 4.24271 3.88853 4.25101 3.86084 4.25932C3.83039 4.26762 3.79994 4.27593 3.76949 4.287C3.73904 4.2953 3.70859 4.30638 3.67538 4.31468C3.64493 4.32298 3.61171 4.33406 3.58126 4.34236C3.54804 4.35343 3.51759 4.36174 3.48437 4.37281L3.45392 4.38112L3.42347 4.39219L3.39302 4.40326L3.36257 4.41433L3.33212 4.42541L3.30167 4.43648L3.27122 4.44755L3.24354 4.45862L3.21586 4.4697L3.18818 4.48077L3.1605 4.49184L3.13282 4.50292L3.10513 4.51399L3.07745 4.52506L3.04977 4.53613L3.02209 4.54721L2.99441 4.55828L2.96673 4.56935L2.93904 4.58042L2.91136 4.5915L2.88368 4.60257L2.856 4.61364L2.82832 4.62471L2.80064 4.63579L2.77295 4.64686L2.74804 4.65793L2.72313 4.669L2.69821 4.68008L2.6733 4.69115L2.64839 4.70222L2.62347 4.7133L2.59856 4.72437L2.57365 4.73544L2.54873 4.74651L2.52382 4.75759L2.49891 4.76866L2.47399 4.77973L2.44908 4.7908L2.42417 4.79911L2.40202 4.80741L2.37987 4.81572L2.35773 4.82402L2.33558 4.83233L2.31344 4.84063L2.29129 4.84894L2.26915 4.85724L2.247 4.86554L2.22486 4.87108L2.20271 4.87662L2.18057 4.88215L2.15842 4.88769L2.13628 4.89323L2.1169 4.89876L2.09752 4.90153C2.09199 4.90153 2.08368 4.9043 2.07814 4.9043C2.07261 4.9043 2.0643 4.90707 2.05877 4.90707C2.05323 4.90707 2.04493 4.90984 2.03939 4.90984L2.02001 4.9126C2.01448 4.9126 2.00617 4.9126 2.00064 4.9126C1.9951 4.9126 1.98679 4.9126 1.98126 4.9126C1.97572 4.9126 1.96742 4.9126 1.96188 4.9126C1.95635 4.9126 1.95081 4.9126 1.9425 4.9126C1.93697 4.9126 1.93143 4.9126 1.92313 4.9126C1.91759 4.9126 1.91205 4.9126 1.90375 4.90984C1.6214 4.82956 1.46084 4.69115 1.42209 4.55551C1.70721 3.51745 2.37987 2.54582 3.34596 1.92852L3.37365 1.91191C3.99925 1.52714 4.75496 1.28631 5.63247 1.26139L5.63801 1.28077ZM6.96119 10.1112C6.94181 10.1029 6.9252 10.0918 6.90859 10.0808C6.89198 10.0697 6.87814 10.0586 6.86154 10.0448C6.81724 10.006 6.77849 9.95897 6.74527 9.90084C6.72313 9.86208 6.70375 9.82056 6.68714 9.77073C6.67884 9.74582 6.67053 9.72091 6.665 9.69599C6.65946 9.67108 6.65392 9.6434 6.64839 9.61295C6.64285 9.58527 6.64008 9.55482 6.63455 9.52437C6.63178 9.49392 6.62901 9.4607 6.62624 9.42748C6.61794 8.51952 6.79233 8.09876 7.03593 7.8607C7.40686 7.72783 7.80548 7.70845 8.0906 7.16589C8.12105 7.1216 8.1515 7.07177 8.17918 7.01641C8.2041 6.96935 8.22901 6.91399 8.25115 6.85586H8.25946H8.27884H8.29821H8.31759H8.33697H8.35635H8.37572H8.3951H8.41448H8.43385H8.45323H8.47261L8.49198 6.85862L8.51136 6.86139L8.53074 6.86416L8.55012 6.86693L8.56949 6.8697L8.58887 6.87247L8.60825 6.87523L8.62762 6.878L8.647 6.88077L8.66638 6.88354L8.68576 6.88631L8.70513 6.88907L8.72451 6.89184L8.74389 6.89461L8.76326 6.89738L8.78264 6.90015L8.80202 6.90292L8.8214 6.90568L8.84077 6.90845L8.86015 6.91122L8.87953 6.91399L8.8989 6.91676L8.91828 6.91952L8.93766 6.92229L8.95704 6.92506L8.97641 6.92783L8.99579 6.9306L9.01517 6.93613L9.03454 6.94167L9.05392 6.94721L9.0733 6.95274L9.09268 6.95828L9.11205 6.96381L9.13143 6.96935L9.15081 6.97489L9.17019 6.98042L9.18956 6.98596L9.20894 6.9915L9.22832 6.99703L9.24769 7.00257L9.26707 7.00811L9.28645 7.01364L9.30583 7.01918L9.3252 7.02471L9.34458 7.03025L9.36396 7.03579L9.38333 7.04132L9.40271 7.04686L9.42209 7.0524L9.44147 7.05793L9.46084 7.06347L9.48022 7.06901L9.4996 7.07454L9.51897 7.08008L9.53835 7.08561L9.55773 7.09115L9.57711 7.09669L9.59648 7.10222L9.61309 7.11053L9.6297 7.11883L9.64631 7.12714L9.66292 7.13544L9.67953 7.14375L9.69614 7.15205L9.71275 7.16035L9.72659 7.16866L9.74043 7.17696L9.75427 7.18527L9.76811 7.19357L9.78195 7.20188L9.79579 7.21018L9.80963 7.21849L9.82347 7.22679L9.83455 7.2351L9.84562 7.2434L9.85669 7.2517C9.865 7.25724 9.87053 7.26554 9.87884 7.27108L9.88991 7.28215L9.90098 7.29323L9.91205 7.3043L9.91759 7.30984C9.90929 7.33198 9.90098 7.35689 9.89268 7.37904L9.88991 7.38734C9.8816 7.40672 9.87607 7.42333 9.86776 7.44271L9.85669 7.46762C9.85115 7.48146 9.84562 7.4953 9.84008 7.50638L9.82347 7.54236L9.8124 7.57004C9.8041 7.58665 9.79856 7.60326 9.79025 7.61987L9.78472 7.63094C9.53005 8.19011 9.16742 8.68838 8.71897 9.09807L8.6996 9.11468C8.68852 9.12575 8.67468 9.13682 8.66361 9.1479C8.65254 9.15897 8.6387 9.17004 8.62762 9.17835L8.60825 9.19496C8.16534 9.57419 7.65046 9.86485 7.09129 10.0503L7.08576 10.0531C7.06638 10.0586 7.047 10.0669 7.02763 10.0725L7.00548 10.078C6.99164 10.0835 6.9778 10.0863 6.96396 10.0918L6.9252 10.1029L6.89752 10.1112L6.88368 10.114L6.96119 10.1112ZM1.43316 6.98319L1.42763 6.96105L1.42486 6.94997L1.42209 6.93613L1.42763 6.9306L1.4387 6.92229L1.44977 6.91399L1.46084 6.90568L1.48576 6.88907L1.4996 6.88077L1.51344 6.87247L1.52728 6.86416L1.54112 6.85586L1.55496 6.84755L1.5688 6.83925L1.58264 6.83094L1.59648 6.82264L1.61032 6.81433L1.62693 6.8088L1.64354 6.80326L1.66015 6.79772L1.67676 6.79219L1.69337 6.78665L1.70998 6.78112L1.72659 6.77558L1.7432 6.77004L1.76257 6.76451L1.78195 6.75897L1.80133 6.75343L1.82071 6.7479L1.84008 6.74236L1.85946 6.73682L1.87884 6.73129L1.89821 6.72852L1.92036 6.72575L1.9425 6.72298L1.96465 6.72022L1.98679 6.71745L2.00894 6.71468L2.03109 6.71191L2.05323 6.70914L2.07538 6.70638L2.09752 6.70361L2.11967 6.70084L2.14181 6.69807L2.16396 6.6953L2.1861 6.69253L2.20825 6.68977L2.23039 6.687L2.25254 6.68423L2.27468 6.68146L2.29683 6.67869L2.31897 6.67593L2.34112 6.67316L2.36327 6.67039L2.38541 6.66762L2.40756 6.66485L2.4297 6.66208L2.45185 6.65932L2.47399 6.65655L2.49614 6.65378L2.51828 6.65101L2.54043 6.64824L2.56257 6.64548L2.58472 6.64271L2.60686 6.63994L2.62901 6.63717L2.65115 6.6344H2.6733H2.69545H2.71482H2.7342H2.75358H2.77295H2.79233H2.81171H2.83109H2.85046H2.86984H2.88922H2.90859H2.92797H2.94735H2.96673H2.9861H3.00548H3.02486H3.04423H3.06361H3.08299H3.10237H3.12174H3.14112L3.1605 6.63717L3.17987 6.63994L3.19925 6.64271H3.20756C3.23524 6.73959 3.26846 6.82264 3.30998 6.89461C3.33489 6.95828 3.36257 7.01641 3.39025 7.06901C3.63109 7.53683 3.99925 7.59219 4.3342 7.74721C4.55288 8.00741 4.68852 8.43925 4.60271 9.34167C4.59718 9.37489 4.59164 9.40534 4.5861 9.43855C4.58057 9.469 4.57226 9.49945 4.56673 9.52714C4.55842 9.55482 4.55012 9.5825 4.54181 9.60741C4.53351 9.63233 4.52243 9.65724 4.51413 9.67939C4.49475 9.72644 4.46984 9.7652 4.44493 9.80395C4.40617 9.85932 4.36465 9.90361 4.31759 9.93682C4.30098 9.9479 4.28437 9.95897 4.26776 9.96727C4.24839 9.97835 4.23178 9.98665 4.2124 9.99496C4.19026 9.98665 4.16811 9.97835 4.14596 9.97004L4.13489 9.96451C4.11828 9.95897 4.10167 9.95067 4.08506 9.94513L4.05738 9.93406L4.02417 9.92022C4.01032 9.91468 3.99648 9.90914 3.98264 9.90084L3.96327 9.89253C3.94389 9.88423 3.92451 9.87593 3.90513 9.86762L3.90237 9.86485C3.36811 9.61849 2.88922 9.26693 2.49337 8.84063L2.47953 8.82679C2.46846 8.81295 2.45462 8.80188 2.44354 8.78804L2.41863 8.76035L2.39648 8.73544C2.38264 8.71883 2.36603 8.70222 2.35219 8.68561L2.34942 8.68285C1.97572 8.23717 1.68783 7.72229 1.5079 7.16035L1.50237 7.14651C1.49683 7.1299 1.49129 7.1133 1.48576 7.09669L1.47745 7.06624V7.06347L1.47192 7.04132L1.46361 7.01641L1.43316 6.98319Z" fill="#8CCB2C"/>
</svg>
