<svg width="16" height="16" viewBox="0 0 16 16" fill="none" xmlns="http://www.w3.org/2000/svg">
<g clip-path="url(#clip0_1_23737)">
<path d="M13.3333 6.66659C13.3333 9.99525 9.64067 13.4619 8.40067 14.5326C8.28515 14.6194 8.14453 14.6664 8 14.6664C7.85547 14.6664 7.71485 14.6194 7.59933 14.5326C6.35933 13.4619 2.66667 9.99525 2.66667 6.66659C2.66667 5.2521 3.22857 3.89554 4.22877 2.89535C5.22896 1.89516 6.58551 1.33325 8 1.33325C9.41449 1.33325 10.771 1.89516 11.7712 2.89535C12.7714 3.89554 13.3333 5.2521 13.3333 6.66659Z" stroke="#929292" stroke-width="1.33333" stroke-linecap="round" stroke-linejoin="round"/>
<path d="M8 8.66675C9.10457 8.66675 10 7.77132 10 6.66675C10 5.56218 9.10457 4.66675 8 4.66675C6.89543 4.66675 6 5.56218 6 6.66675C6 7.77132 6.89543 8.66675 8 8.66675Z" stroke="#929292" stroke-width="1.33333" stroke-linecap="round" stroke-linejoin="round"/>
</g>
<defs>
<clipPath id="clip0_1_23737">
<rect width="16" height="16" fill="white"/>
</clipPath>
</defs>
</svg>
