<svg width="77" height="44" viewBox="0 0 77 44" fill="none" xmlns="http://www.w3.org/2000/svg">
<path d="M3.712 6.504V13H1.088V1.64H3.168L8.432 8.328V1.64H11.056V13H8.912L3.712 6.504ZM16.256 13.16C15.5413 13.16 14.9067 13.048 14.352 12.824C13.7973 12.5893 13.3227 12.2747 12.928 11.88C12.544 11.4853 12.2507 11.032 12.048 10.52C11.8453 9.99733 11.744 9.45333 11.744 8.888C11.744 8.07733 11.92 7.34133 12.272 6.68C12.6347 6.008 13.152 5.46933 13.824 5.064C14.496 4.648 15.3067 4.44 16.256 4.44C17.2053 4.44 18.0107 4.64267 18.672 5.048C19.344 5.45333 19.856 5.98667 20.208 6.648C20.56 7.29867 20.736 8.008 20.736 8.776C20.736 8.92533 20.7253 9.07467 20.704 9.224C20.6933 9.36267 20.6827 9.48533 20.672 9.592H14.464C14.496 9.96533 14.5973 10.28 14.768 10.536C14.9493 10.792 15.1787 10.9893 15.456 11.128C15.7333 11.256 16.0267 11.32 16.336 11.32C16.72 11.32 17.0773 11.2293 17.408 11.048C17.7493 10.8667 17.984 10.6213 18.112 10.312L20.288 10.92C20.0747 11.3573 19.7707 11.7467 19.376 12.088C18.992 12.4187 18.5333 12.68 18 12.872C17.4773 13.064 16.896 13.16 16.256 13.16ZM14.4 8.024H18.048C18.0053 7.672 17.904 7.368 17.744 7.112C17.584 6.84533 17.3707 6.64267 17.104 6.504C16.8373 6.35467 16.544 6.28 16.224 6.28C15.8933 6.28 15.5947 6.35467 15.328 6.504C15.072 6.64267 14.864 6.84533 14.704 7.112C14.544 7.368 14.4427 7.672 14.4 8.024ZM24.5202 13.032C23.9656 13.032 23.4589 12.9253 23.0002 12.712C22.5416 12.488 22.1469 12.184 21.8162 11.8C21.4962 11.4053 21.2456 10.952 21.0642 10.44C20.8829 9.928 20.7922 9.37867 20.7922 8.792C20.7922 8.17333 20.8882 7.60267 21.0802 7.08C21.2722 6.55733 21.5389 6.09867 21.8802 5.704C22.2322 5.29867 22.6429 4.98933 23.1122 4.776C23.5922 4.552 24.1202 4.44 24.6962 4.44C25.3256 4.44 25.8802 4.57867 26.3602 4.856C26.8402 5.12267 27.2242 5.496 27.5122 5.976V4.6H29.7362V12.424C29.7362 13.2773 29.5282 14.0133 29.1122 14.632C28.7069 15.2507 28.1362 15.7253 27.4002 16.056C26.6749 16.3973 25.8322 16.568 24.8722 16.568C23.9762 16.568 23.2029 16.4187 22.5522 16.12C21.9122 15.832 21.3522 15.4213 20.8722 14.888L22.2482 13.496C22.5576 13.848 22.9416 14.1253 23.4002 14.328C23.8589 14.5413 24.3496 14.648 24.8722 14.648C25.2882 14.648 25.6722 14.5733 26.0242 14.424C26.3762 14.2747 26.6536 14.0347 26.8562 13.704C27.0696 13.3733 27.1762 12.9467 27.1762 12.424V11.608C26.9202 12.0667 26.5469 12.4187 26.0562 12.664C25.5762 12.9093 25.0642 13.032 24.5202 13.032ZM25.4002 11C25.6029 11 25.7896 10.9733 25.9602 10.92C26.1416 10.856 26.3069 10.776 26.4562 10.68C26.6056 10.5733 26.7442 10.4507 26.8722 10.312C27.0002 10.1627 27.1016 10.0027 27.1762 9.832V8.072C27.0696 7.77333 26.9149 7.51733 26.7122 7.304C26.5096 7.08 26.2856 6.90933 26.0402 6.792C25.7949 6.67467 25.5389 6.616 25.2722 6.616C25.0056 6.616 24.7549 6.67467 24.5202 6.792C24.2856 6.90933 24.0829 7.08 23.9122 7.304C23.7522 7.51733 23.6242 7.75733 23.5282 8.024C23.4429 8.29067 23.4002 8.568 23.4002 8.856C23.4002 9.16533 23.4482 9.448 23.5442 9.704C23.6509 9.96 23.7949 10.1893 23.9762 10.392C24.1576 10.584 24.3709 10.7333 24.6162 10.84C24.8616 10.9467 25.1229 11 25.4002 11ZM30.8506 13V4.6H33.4106V13H30.8506ZM30.8506 3.64V1.32H33.4106V3.64H30.8506ZM34.4911 1.32H37.0511V10.008C37.0511 10.36 37.1151 10.6107 37.2431 10.76C37.3711 10.9093 37.5525 10.984 37.7871 10.984C37.9471 10.984 38.1071 10.9627 38.2671 10.92C38.4378 10.8667 38.5871 10.808 38.7151 10.744L39.0511 12.664C38.7311 12.8133 38.3631 12.9307 37.9471 13.016C37.5311 13.1013 37.1418 13.144 36.7791 13.144C36.0538 13.144 35.4885 12.952 35.0831 12.568C34.6885 12.1733 34.4911 11.6187 34.4911 10.904V1.32ZM39.1625 9.976V4.6H41.7225V9.416C41.7225 9.928 41.8238 10.3227 42.0265 10.6C42.2292 10.8667 42.5172 11 42.8905 11C43.1252 11 43.3492 10.9627 43.5625 10.888C43.7758 10.8027 43.9838 10.6693 44.1865 10.488C44.3892 10.3067 44.5705 10.072 44.7305 9.784V4.6H47.2905V10.152C47.2905 10.408 47.3278 10.5893 47.4025 10.696C47.4878 10.792 47.6318 10.8507 47.8345 10.872V13C47.5998 13.0427 47.3918 13.0747 47.2105 13.096C47.0398 13.1173 46.8852 13.128 46.7465 13.128C46.2985 13.128 45.9412 13.0373 45.6745 12.856C45.4078 12.664 45.2425 12.3973 45.1785 12.056L45.1305 11.544C44.7465 12.0987 44.2665 12.5093 43.6905 12.776C43.1252 13.032 42.4905 13.16 41.7865 13.16C40.9332 13.16 40.2825 12.888 39.8345 12.344C39.3865 11.8 39.1625 11.0107 39.1625 9.976ZM48.6177 13V10.392H50.7137V13H48.6177ZM1.904 40V20.12H9.324C11.508 20.12 13.328 20.568 14.784 21.464C16.2587 22.3413 17.3693 23.536 18.116 25.048C18.8627 26.5413 19.236 28.2027 19.236 30.032C19.236 32.048 18.8253 33.8027 18.004 35.296C17.1827 36.7893 16.0253 37.9467 14.532 38.768C13.0573 39.5893 11.3213 40 9.324 40H1.904ZM14.56 30.032C14.56 28.8747 14.3547 27.8573 13.944 26.98C13.5333 26.084 12.936 25.3933 12.152 24.908C11.368 24.404 10.4253 24.152 9.324 24.152H6.496V35.968H9.324C10.444 35.968 11.3867 35.716 12.152 35.212C12.936 34.6893 13.5333 33.98 13.944 33.084C14.3547 32.1693 14.56 31.152 14.56 30.032ZM29.6776 29.136C28.5949 29.136 27.6149 29.3133 26.7376 29.668C25.8603 30.004 25.2256 30.508 24.8336 31.18V40H20.3536V25.3H24.4696V28.268C24.9736 27.2787 25.6269 26.504 26.4296 25.944C27.2323 25.384 28.0723 25.0947 28.9496 25.076C29.1549 25.076 29.3043 25.076 29.3976 25.076C29.5096 25.076 29.6029 25.0853 29.6776 25.104V29.136ZM30.4445 40V25.3H34.9245V40H30.4445ZM30.4445 23.62V19.56H34.9245V23.62H30.4445ZM40.6794 40L35.4714 25.3H40.0914L43.3114 35.968L46.5314 25.3H50.7314L45.5514 40H40.6794ZM57.8458 40.28C56.5951 40.28 55.4845 40.084 54.5138 39.692C53.5431 39.2813 52.7125 38.7307 52.0218 38.04C51.3498 37.3493 50.8365 36.556 50.4818 35.66C50.1271 34.7453 49.9498 33.7933 49.9498 32.804C49.9498 31.3853 50.2578 30.0973 50.8738 28.94C51.5085 27.764 52.4138 26.8213 53.5898 26.112C54.7658 25.384 56.1845 25.02 57.8458 25.02C59.5071 25.02 60.9165 25.3747 62.0738 26.084C63.2498 26.7933 64.1458 27.7267 64.7618 28.884C65.3778 30.0227 65.6858 31.264 65.6858 32.608C65.6858 32.8693 65.6671 33.1307 65.6298 33.392C65.6111 33.6347 65.5925 33.8493 65.5738 34.036H54.7098C54.7658 34.6893 54.9431 35.24 55.2418 35.688C55.5591 36.136 55.9605 36.4813 56.4458 36.724C56.9311 36.948 57.4445 37.06 57.9858 37.06C58.6578 37.06 59.2831 36.9013 59.8618 36.584C60.4591 36.2667 60.8698 35.8373 61.0938 35.296L64.9018 36.36C64.5285 37.1253 63.9965 37.8067 63.3058 38.404C62.6338 38.9827 61.8311 39.44 60.8978 39.776C59.9831 40.112 58.9658 40.28 57.8458 40.28ZM54.5978 31.292H60.9818C60.9071 30.676 60.7298 30.144 60.4498 29.696C60.1698 29.2293 59.7965 28.8747 59.3298 28.632C58.8631 28.3707 58.3498 28.24 57.7898 28.24C57.2111 28.24 56.6885 28.3707 56.2218 28.632C55.7738 28.8747 55.4098 29.2293 55.1298 29.696C54.8498 30.144 54.6725 30.676 54.5978 31.292ZM75.9203 29.136C74.8376 29.136 73.8576 29.3133 72.9803 29.668C72.1029 30.004 71.4683 30.508 71.0763 31.18V40H66.5963V25.3H70.7123V28.268C71.2163 27.2787 71.8696 26.504 72.6723 25.944C73.4749 25.384 74.3149 25.0947 75.1923 25.076C75.3976 25.076 75.5469 25.076 75.6403 25.076C75.7523 25.076 75.8456 25.0853 75.9203 25.104V29.136Z" fill="#8CCB2C"/>
</svg>
