<svg width="48" height="48" viewBox="0 0 48 48" fill="none" xmlns="http://www.w3.org/2000/svg">
<rect width="48" height="48" rx="12" fill="#FFEDD5"/>
<path d="M26 30V18C26 17.4696 25.7893 16.9609 25.4142 16.5858C25.0391 16.2107 24.5304 16 24 16H16C15.4696 16 14.9609 16.2107 14.5858 16.5858C14.2107 16.9609 14 17.4696 14 18V29C14 29.2652 14.1054 29.5196 14.2929 29.7071C14.4804 29.8946 14.7348 30 15 30H17" stroke="#EA580C" stroke-width="2" stroke-linecap="round" stroke-linejoin="round"/>
<path d="M27 30H21" stroke="#EA580C" stroke-width="2" stroke-linecap="round" stroke-linejoin="round"/>
<path d="M31 30H33C33.2652 30 33.5196 29.8946 33.7071 29.7071C33.8946 29.5196 34 29.2652 34 29V25.35C33.9996 25.1231 33.922 24.903 33.78 24.726L30.3 20.376C30.2065 20.2589 30.0878 20.1643 29.9528 20.0992C29.8178 20.0341 29.6699 20.0002 29.52 20H26" stroke="#EA580C" stroke-width="2" stroke-linecap="round" stroke-linejoin="round"/>
<path d="M29 32C30.1046 32 31 31.1046 31 30C31 28.8954 30.1046 28 29 28C27.8954 28 27 28.8954 27 30C27 31.1046 27.8954 32 29 32Z" stroke="#EA580C" stroke-width="2" stroke-linecap="round" stroke-linejoin="round"/>
<path d="M19 32C20.1046 32 21 31.1046 21 30C21 28.8954 20.1046 28 19 28C17.8954 28 17 28.8954 17 30C17 31.1046 17.8954 32 19 32Z" stroke="#EA580C" stroke-width="2" stroke-linecap="round" stroke-linejoin="round"/>
</svg>
