<svg width="75" height="40" viewBox="0 0 75 40" fill="none" xmlns="http://www.w3.org/2000/svg">
<path d="M2.712 5.504V12H0.0880001V0.639999H2.168L7.432 7.328V0.639999H10.056V12H7.912L2.712 5.504ZM15.256 12.16C14.5413 12.16 13.9067 12.048 13.352 11.824C12.7973 11.5893 12.3227 11.2747 11.928 10.88C11.544 10.4853 11.2507 10.032 11.048 9.52C10.8453 8.99733 10.744 8.45333 10.744 7.888C10.744 7.07733 10.92 6.34133 11.272 5.68C11.6347 5.008 12.152 4.46933 12.824 4.064C13.496 3.648 14.3067 3.44 15.256 3.44C16.2053 3.44 17.0107 3.64267 17.672 4.048C18.344 4.45333 18.856 4.98667 19.208 5.648C19.56 6.29867 19.736 7.008 19.736 7.776C19.736 7.92533 19.7253 8.07467 19.704 8.224C19.6933 8.36267 19.6827 8.48533 19.672 8.592H13.464C13.496 8.96533 13.5973 9.28 13.768 9.536C13.9493 9.792 14.1787 9.98933 14.456 10.128C14.7333 10.256 15.0267 10.32 15.336 10.32C15.72 10.32 16.0773 10.2293 16.408 10.048C16.7493 9.86667 16.984 9.62133 17.112 9.312L19.288 9.92C19.0747 10.3573 18.7707 10.7467 18.376 11.088C17.992 11.4187 17.5333 11.68 17 11.872C16.4773 12.064 15.896 12.16 15.256 12.16ZM13.4 7.024H17.048C17.0053 6.672 16.904 6.368 16.744 6.112C16.584 5.84533 16.3707 5.64267 16.104 5.504C15.8373 5.35467 15.544 5.28 15.224 5.28C14.8933 5.28 14.5947 5.35467 14.328 5.504C14.072 5.64267 13.864 5.84533 13.704 6.112C13.544 6.368 13.4427 6.672 13.4 7.024ZM23.5202 12.032C22.9656 12.032 22.4589 11.9253 22.0002 11.712C21.5416 11.488 21.1469 11.184 20.8162 10.8C20.4962 10.4053 20.2456 9.952 20.0642 9.44C19.8829 8.928 19.7922 8.37867 19.7922 7.792C19.7922 7.17333 19.8882 6.60267 20.0802 6.08C20.2722 5.55733 20.5389 5.09867 20.8802 4.704C21.2322 4.29867 21.6429 3.98933 22.1122 3.776C22.5922 3.552 23.1202 3.44 23.6962 3.44C24.3256 3.44 24.8802 3.57867 25.3602 3.856C25.8402 4.12267 26.2242 4.496 26.5122 4.976V3.6H28.7362V11.424C28.7362 12.2773 28.5282 13.0133 28.1122 13.632C27.7069 14.2507 27.1362 14.7253 26.4002 15.056C25.6749 15.3973 24.8322 15.568 23.8722 15.568C22.9762 15.568 22.2029 15.4187 21.5522 15.12C20.9122 14.832 20.3522 14.4213 19.8722 13.888L21.2482 12.496C21.5576 12.848 21.9416 13.1253 22.4002 13.328C22.8589 13.5413 23.3496 13.648 23.8722 13.648C24.2882 13.648 24.6722 13.5733 25.0242 13.424C25.3762 13.2747 25.6536 13.0347 25.8562 12.704C26.0696 12.3733 26.1762 11.9467 26.1762 11.424V10.608C25.9202 11.0667 25.5469 11.4187 25.0562 11.664C24.5762 11.9093 24.0642 12.032 23.5202 12.032ZM24.4002 10C24.6029 10 24.7896 9.97333 24.9602 9.92C25.1416 9.856 25.3069 9.776 25.4562 9.68C25.6056 9.57333 25.7442 9.45067 25.8722 9.312C26.0002 9.16267 26.1016 9.00267 26.1762 8.832V7.072C26.0696 6.77333 25.9149 6.51733 25.7122 6.304C25.5096 6.08 25.2856 5.90933 25.0402 5.792C24.7949 5.67467 24.5389 5.616 24.2722 5.616C24.0056 5.616 23.7549 5.67467 23.5202 5.792C23.2856 5.90933 23.0829 6.08 22.9122 6.304C22.7522 6.51733 22.6242 6.75733 22.5282 7.024C22.4429 7.29067 22.4002 7.568 22.4002 7.856C22.4002 8.16533 22.4482 8.448 22.5442 8.704C22.6509 8.96 22.7949 9.18933 22.9762 9.392C23.1576 9.584 23.3709 9.73333 23.6162 9.84C23.8616 9.94667 24.1229 10 24.4002 10ZM29.8506 12V3.6H32.4106V12H29.8506ZM29.8506 2.64V0.32H32.4106V2.64H29.8506ZM33.4911 0.32H36.0511V9.008C36.0511 9.36 36.1151 9.61067 36.2431 9.76C36.3711 9.90933 36.5525 9.984 36.7871 9.984C36.9471 9.984 37.1071 9.96267 37.2671 9.92C37.4378 9.86667 37.5871 9.808 37.7151 9.744L38.0511 11.664C37.7311 11.8133 37.3631 11.9307 36.9471 12.016C36.5311 12.1013 36.1418 12.144 35.7791 12.144C35.0538 12.144 34.4885 11.952 34.0831 11.568C33.6885 11.1733 33.4911 10.6187 33.4911 9.904V0.32ZM38.1625 8.976V3.6H40.7225V8.416C40.7225 8.928 40.8238 9.32267 41.0265 9.6C41.2292 9.86667 41.5172 10 41.8905 10C42.1252 10 42.3492 9.96267 42.5625 9.888C42.7758 9.80267 42.9838 9.66933 43.1865 9.488C43.3892 9.30667 43.5705 9.072 43.7305 8.784V3.6H46.2905V9.152C46.2905 9.408 46.3278 9.58933 46.4025 9.696C46.4878 9.792 46.6318 9.85067 46.8345 9.872V12C46.5998 12.0427 46.3918 12.0747 46.2105 12.096C46.0398 12.1173 45.8852 12.128 45.7465 12.128C45.2985 12.128 44.9412 12.0373 44.6745 11.856C44.4078 11.664 44.2425 11.3973 44.1785 11.056L44.1305 10.544C43.7465 11.0987 43.2665 11.5093 42.6905 11.776C42.1252 12.032 41.4905 12.16 40.7865 12.16C39.9332 12.16 39.2825 11.888 38.8345 11.344C38.3865 10.8 38.1625 10.0107 38.1625 8.976ZM47.6177 12V9.392H49.7137V12H47.6177ZM0.904 39V19.12H8.324C10.508 19.12 12.328 19.568 13.784 20.464C15.2587 21.3413 16.3693 22.536 17.116 24.048C17.8627 25.5413 18.236 27.2027 18.236 29.032C18.236 31.048 17.8253 32.8027 17.004 34.296C16.1827 35.7893 15.0253 36.9467 13.532 37.768C12.0573 38.5893 10.3213 39 8.324 39H0.904ZM13.56 29.032C13.56 27.8747 13.3547 26.8573 12.944 25.98C12.5333 25.084 11.936 24.3933 11.152 23.908C10.368 23.404 9.42533 23.152 8.324 23.152H5.496V34.968H8.324C9.444 34.968 10.3867 34.716 11.152 34.212C11.936 33.6893 12.5333 32.98 12.944 32.084C13.3547 31.1693 13.56 30.152 13.56 29.032ZM28.6776 28.136C27.5949 28.136 26.6149 28.3133 25.7376 28.668C24.8603 29.004 24.2256 29.508 23.8336 30.18V39H19.3536V24.3H23.4696V27.268C23.9736 26.2787 24.6269 25.504 25.4296 24.944C26.2323 24.384 27.0723 24.0947 27.9496 24.076C28.1549 24.076 28.3043 24.076 28.3976 24.076C28.5096 24.076 28.6029 24.0853 28.6776 24.104V28.136ZM29.4445 39V24.3H33.9245V39H29.4445ZM29.4445 22.62V18.56H33.9245V22.62H29.4445ZM39.6794 39L34.4714 24.3H39.0914L42.3114 34.968L45.5314 24.3H49.7314L44.5514 39H39.6794ZM56.8458 39.28C55.5951 39.28 54.4845 39.084 53.5138 38.692C52.5431 38.2813 51.7125 37.7307 51.0218 37.04C50.3498 36.3493 49.8365 35.556 49.4818 34.66C49.1271 33.7453 48.9498 32.7933 48.9498 31.804C48.9498 30.3853 49.2578 29.0973 49.8738 27.94C50.5085 26.764 51.4138 25.8213 52.5898 25.112C53.7658 24.384 55.1845 24.02 56.8458 24.02C58.5071 24.02 59.9165 24.3747 61.0738 25.084C62.2498 25.7933 63.1458 26.7267 63.7618 27.884C64.3778 29.0227 64.6858 30.264 64.6858 31.608C64.6858 31.8693 64.6671 32.1307 64.6298 32.392C64.6111 32.6347 64.5925 32.8493 64.5738 33.036H53.7098C53.7658 33.6893 53.9431 34.24 54.2418 34.688C54.5591 35.136 54.9605 35.4813 55.4458 35.724C55.9311 35.948 56.4445 36.06 56.9858 36.06C57.6578 36.06 58.2831 35.9013 58.8618 35.584C59.4591 35.2667 59.8698 34.8373 60.0938 34.296L63.9018 35.36C63.5285 36.1253 62.9965 36.8067 62.3058 37.404C61.6338 37.9827 60.8311 38.44 59.8978 38.776C58.9831 39.112 57.9658 39.28 56.8458 39.28ZM53.5978 30.292H59.9818C59.9071 29.676 59.7298 29.144 59.4498 28.696C59.1698 28.2293 58.7965 27.8747 58.3298 27.632C57.8631 27.3707 57.3498 27.24 56.7898 27.24C56.2111 27.24 55.6885 27.3707 55.2218 27.632C54.7738 27.8747 54.4098 28.2293 54.1298 28.696C53.8498 29.144 53.6725 29.676 53.5978 30.292ZM74.9203 28.136C73.8376 28.136 72.8576 28.3133 71.9803 28.668C71.1029 29.004 70.4683 29.508 70.0763 30.18V39H65.5963V24.3H69.7123V27.268C70.2163 26.2787 70.8696 25.504 71.6723 24.944C72.4749 24.384 73.3149 24.0947 74.1923 24.076C74.3976 24.076 74.5469 24.076 74.6403 24.076C74.7523 24.076 74.8456 24.0853 74.9203 24.104V28.136Z" fill="#8CCB2C"/>
</svg>
