<svg width="15" height="15" viewBox="0 0 15 15" fill="none" xmlns="http://www.w3.org/2000/svg">
<path d="M12.9487 7.06729C12.9007 5.46896 12.3187 4.11188 11.2027 2.99604C10.0867 1.88007 8.72965 1.29806 7.13146 1.25V0C8.10368 0.0213889 9.01389 0.220625 9.86208 0.597708C10.7104 0.974931 11.4514 1.48028 12.085 2.11375C12.7185 2.74736 13.2238 3.48826 13.6008 4.33646C13.9781 5.18479 14.1774 6.09507 14.1987 7.06729H12.9487ZM9.61542 7.06729C9.56736 6.39951 9.30826 5.82924 8.83813 5.35646C8.36799 4.88382 7.7991 4.62611 7.13146 4.58333V3.33333C8.14535 3.37611 9.0091 3.75563 9.72271 4.47188C10.4365 5.18826 10.8174 6.0534 10.8654 7.06729H9.61542ZM13.2835 14.375C11.7131 14.375 10.1354 14.0099 8.55042 13.2796C6.96556 12.5493 5.50806 11.5192 4.17792 10.1892C2.85319 8.85903 1.82569 7.40278 1.09542 5.82042C0.365139 4.23819 0 2.66188 0 1.09146C0 0.841459 0.0833333 0.631736 0.25 0.462292C0.416667 0.292986 0.625 0.208333 0.875 0.208333H3.59292C3.80333 0.208333 3.98896 0.277014 4.14979 0.414375C4.31063 0.551598 4.41292 0.72118 4.45667 0.923125L4.93438 3.375C4.96743 3.6025 4.96049 3.79799 4.91354 3.96146C4.86646 4.12493 4.78201 4.26222 4.66021 4.37333L2.73562 6.24687C3.04535 6.8141 3.39924 7.35069 3.79729 7.85667C4.19521 8.3625 4.62604 8.84562 5.08979 9.30604C5.54701 9.7634 6.03312 10.1881 6.54812 10.5802C7.06312 10.9723 7.61924 11.3372 8.21646 11.6748L10.0865 9.78854C10.2169 9.65285 10.3748 9.55771 10.5602 9.50313C10.7455 9.44868 10.9381 9.43535 11.1379 9.46313L13.4519 9.93437C13.6623 9.98993 13.834 10.0973 13.9671 10.2565C14.1001 10.4156 14.1667 10.5962 14.1667 10.7981V13.5C14.1667 13.75 14.082 13.9583 13.9127 14.125C13.7433 14.2917 13.5335 14.375 13.2835 14.375ZM2.14417 5.06417L3.63146 3.64104C3.65812 3.61965 3.67549 3.59028 3.68354 3.55292C3.6916 3.51556 3.69028 3.48083 3.67958 3.44875L3.31729 1.58646C3.3066 1.54382 3.28792 1.51181 3.26125 1.49042C3.23458 1.46903 3.19986 1.45833 3.15708 1.45833H1.375C1.34292 1.45833 1.31618 1.46903 1.29479 1.49042C1.27354 1.51181 1.26292 1.53854 1.26292 1.57063C1.30556 2.14007 1.39875 2.71854 1.5425 3.30604C1.68611 3.89368 1.88667 4.47972 2.14417 5.06417ZM9.39417 12.266C9.94653 12.5235 10.5226 12.7204 11.1225 12.8567C11.7225 12.9928 12.2831 13.0737 12.8044 13.0994C12.8365 13.0994 12.8632 13.0887 12.8846 13.0673C12.906 13.0459 12.9167 13.0192 12.9167 12.9871V11.234C12.9167 11.1912 12.906 11.1565 12.8846 11.1298C12.8632 11.1031 12.8312 11.0844 12.7885 11.0738L11.0385 10.7179C11.0065 10.7072 10.9784 10.7059 10.9544 10.714C10.9303 10.722 10.9049 10.7394 10.8781 10.766L9.39417 12.266Z" fill="#606060"/>
</svg>
