<svg width="15" height="16" viewBox="0 0 15 16" fill="none" xmlns="http://www.w3.org/2000/svg">
<path d="M2.08333 15.6731C1.50111 15.6731 1.00833 15.4715 0.605 15.0681C0.201667 14.6648 0 14.1733 0 13.5935V11.5065H2.5V0L3.65396 0.99375L4.82375 0L5.99354 0.99375L7.16354 0L8.33333 0.99375L9.50313 0L10.6731 0.99375L11.8429 0L13.0127 0.99375L14.1667 0V13.5898C14.1667 14.172 13.965 14.6648 13.5617 15.0681C13.1583 15.4715 12.6656 15.6731 12.0833 15.6731H2.08333ZM12.0833 14.4231C12.3194 14.4231 12.5174 14.3433 12.6771 14.1835C12.8368 14.0238 12.9167 13.8259 12.9167 13.5898V1.92312H3.75V11.5065H11.25V13.5898C11.25 13.8259 11.3299 14.0238 11.4896 14.1835C11.6493 14.3433 11.8472 14.4231 12.0833 14.4231ZM4.74354 5.04813V3.79813H9.47104V5.04813H4.74354ZM4.74354 7.54812V6.29813H9.47104V7.54812H4.74354ZM11.2019 5.16021C10.9978 5.16021 10.824 5.0884 10.6802 4.94479C10.5366 4.80104 10.4648 4.62715 10.4648 4.42313C10.4648 4.2191 10.5366 4.04521 10.6802 3.90146C10.824 3.75785 10.9978 3.68604 11.2019 3.68604C11.4059 3.68604 11.5798 3.75785 11.7235 3.90146C11.8673 4.04521 11.9392 4.2191 11.9392 4.42313C11.9392 4.62715 11.8673 4.80104 11.7235 4.94479C11.5798 5.0884 11.4059 5.16021 11.2019 5.16021ZM11.2019 7.66021C10.9978 7.66021 10.824 7.5884 10.6802 7.44479C10.5366 7.30104 10.4648 7.12715 10.4648 6.92312C10.4648 6.7191 10.5366 6.54521 10.6802 6.40146C10.824 6.25785 10.9978 6.18604 11.2019 6.18604C11.4059 6.18604 11.5798 6.25785 11.7235 6.40146C11.8673 6.54521 11.9392 6.7191 11.9392 6.92312C11.9392 7.12715 11.8673 7.30104 11.7235 7.44479C11.5798 7.5884 11.4059 7.66021 11.2019 7.66021ZM2.08333 14.4231H10V12.7565H1.25V13.5898C1.25 13.8259 1.32986 14.0238 1.48958 14.1835C1.64931 14.3433 1.84722 14.4231 2.08333 14.4231Z" fill="#606060"/>
</svg>
