<svg width="16" height="16" viewBox="0 0 16 16" fill="none" xmlns="http://www.w3.org/2000/svg">
<path d="M7.91667 12.7083C9.24764 12.7083 10.379 12.2425 11.3108 11.3108C12.2425 10.379 12.7083 9.24764 12.7083 7.91667C12.7083 6.62389 12.2663 5.51549 11.3823 4.59146C10.4981 3.66729 9.41236 3.18382 8.125 3.14104V8.00042L4.67958 11.4423C5.13361 11.8419 5.63597 12.1528 6.18667 12.375C6.7375 12.5972 7.31417 12.7083 7.91667 12.7083ZM7.91812 15.8333C6.82312 15.8333 5.79389 15.6256 4.83042 15.21C3.86694 14.7944 3.02889 14.2305 2.31625 13.5181C1.60361 12.8058 1.03937 11.9681 0.623542 11.005C0.207847 10.0419 0 9.01299 0 7.91812C0 6.82312 0.207778 5.79389 0.623333 4.83042C1.03889 3.86694 1.60285 3.02889 2.31521 2.31625C3.02757 1.60361 3.86528 1.03937 4.82833 0.623542C5.79139 0.207847 6.82035 0 7.91521 0C9.01021 0 10.0394 0.207777 11.0029 0.623333C11.9664 1.03889 12.8044 1.60285 13.5171 2.31521C14.2297 3.02757 14.794 3.86528 15.2098 4.82833C15.6255 5.79139 15.8333 6.82035 15.8333 7.91521C15.8333 9.01021 15.6256 10.0394 15.21 11.0029C14.7944 11.9664 14.2305 12.8044 13.5181 13.5171C12.8058 14.2297 11.9681 14.794 11.005 15.2098C10.0419 15.6255 9.01299 15.8333 7.91812 15.8333ZM7.91667 14.5833C9.77778 14.5833 11.3542 13.9375 12.6458 12.6458C13.9375 11.3542 14.5833 9.77778 14.5833 7.91667C14.5833 6.05556 13.9375 4.47917 12.6458 3.1875C11.3542 1.89583 9.77778 1.25 7.91667 1.25C6.05556 1.25 4.47917 1.89583 3.1875 3.1875C1.89583 4.47917 1.25 6.05556 1.25 7.91667C1.25 9.77778 1.89583 11.3542 3.1875 12.6458C4.47917 13.9375 6.05556 14.5833 7.91667 14.5833Z" fill="#8CCB2C"/>
</svg>
