<svg width="16" height="16" viewBox="0 0 16 16" fill="none" xmlns="http://www.w3.org/2000/svg">
<path d="M9.33333 12.0001V4.00008C9.33333 3.64646 9.19286 3.30732 8.94281 3.05727C8.69276 2.80722 8.35362 2.66675 8 2.66675H2.66667C2.31304 2.66675 1.9739 2.80722 1.72386 3.05727C1.47381 3.30732 1.33333 3.64646 1.33333 4.00008V11.3334C1.33333 11.5102 1.40357 11.6798 1.52859 11.8048C1.65362 11.9298 1.82319 12.0001 2 12.0001H3.33333" stroke="#929292" stroke-width="1.33333" stroke-linecap="round" stroke-linejoin="round"/>
<path d="M10 12H6" stroke="#929292" stroke-width="1.33333" stroke-linecap="round" stroke-linejoin="round"/>
<path d="M12.6667 11.9999H14C14.1768 11.9999 14.3464 11.9297 14.4714 11.8047C14.5964 11.6796 14.6667 11.5101 14.6667 11.3333V8.89992C14.6664 8.74863 14.6147 8.60193 14.52 8.48392L12.2 5.58392C12.1376 5.50584 12.0585 5.44277 11.9685 5.39938C11.8785 5.356 11.7799 5.33339 11.68 5.33325H9.33333" stroke="#929292" stroke-width="1.33333" stroke-linecap="round" stroke-linejoin="round"/>
<path d="M11.3333 13.3334C12.0697 13.3334 12.6667 12.7365 12.6667 12.0001C12.6667 11.2637 12.0697 10.6667 11.3333 10.6667C10.597 10.6667 10 11.2637 10 12.0001C10 12.7365 10.597 13.3334 11.3333 13.3334Z" stroke="#929292" stroke-width="1.33333" stroke-linecap="round" stroke-linejoin="round"/>
<path d="M4.66667 13.3334C5.40305 13.3334 6 12.7365 6 12.0001C6 11.2637 5.40305 10.6667 4.66667 10.6667C3.93029 10.6667 3.33333 11.2637 3.33333 12.0001C3.33333 12.7365 3.93029 13.3334 4.66667 13.3334Z" stroke="#929292" stroke-width="1.33333" stroke-linecap="round" stroke-linejoin="round"/>
</svg>
